<?xml version="1.0" encoding="UTF-8" standalone="no"?>
<!-- Created with Inkscape (http://www.inkscape.org/) -->
<svg
   xmlns:svg="http://www.w3.org/2000/svg"
   xmlns="http://www.w3.org/2000/svg"
   xmlns:xlink="http://www.w3.org/1999/xlink"
   version="1.0"
   width="1103.0315"
   height="229.96062"
   id="svg2">
  <defs
     id="defs4">
    <linearGradient
       id="linearGradient3417">
      <stop
         id="stop3419"
         style="stop-color:#11266f;stop-opacity:1"
         offset="0" />
      <stop
         id="stop3427"
         style="stop-color:#4266ae;stop-opacity:1"
         offset="1" />
    </linearGradient>
    <linearGradient
       id="linearGradient3386">
      <stop
         id="stop3388"
         style="stop-color:#e0162b;stop-opacity:1"
         offset="0" />
      <stop
         id="stop3398"
         style="stop-color:#ff0108;stop-opacity:1"
         offset="0.57157475" />
      <stop
         id="stop3394"
         style="stop-color:#ffb8bb;stop-opacity:1"
         offset="0.75374842" />
      <stop
         id="stop3429"
         style="stop-color:#ffb0b3;stop-opacity:1"
         offset="0.79288644" />
      <stop
         id="stop3400"
         style="stop-color:#ff010a;stop-opacity:1"
         offset="0.85106683" />
      <stop
         id="stop3390"
         style="stop-color:#ff0000;stop-opacity:1"
         offset="1" />
    </linearGradient>
    <linearGradient
       x1="1415.8615"
       y1="469.13235"
       x2="1294.8617"
       y2="536.90253"
       id="linearGradient3436"
       xlink:href="#linearGradient3417"
       gradientUnits="userSpaceOnUse" />
    <linearGradient
       x1="1138.3611"
       y1="524.51776"
       x2="1415.8781"
       y2="421.77048"
       id="linearGradient3438"
       xlink:href="#linearGradient3386"
       gradientUnits="userSpaceOnUse" />
  </defs>
  <g
     transform="translate(-383.6303,-431.59089)"
     id="layer1">
    <g
       transform="translate(35.391897,35.459601)"
       id="g3431">
      <path
         d="M 421.77551,552.64703 C 428.69646,551.35107 435.09903,545.55512 435.09903,538.20402 C 435.09903,524.36211 423.1597,519.34925 410.96669,519.34925 L 383.6303,519.34925 C 385.8803,520.55697 386.83435,523.24263 386.83435,525.66358 L 386.83435,583.09922 C 386.83435,585.43745 385.8803,588.20583 383.6303,589.33083 L 413.29941,589.33083 C 424.89131,589.33083 441.32513,585.34922 441.32513,569.61025 C 441.31961,558.61945 431.72403,552.56431 421.77551,552.64703 z M 401.27735,525.66358 C 403.61559,525.40439 404.47588,525.40439 405.77184,525.40439 C 414.07698,525.40439 420.56227,528.17277 420.56227,537.86211 C 420.56227,547.55144 412.4336,550.14887 404.04022,550.14887 L 401.27735,550.14887 L 401.27735,525.66358 z M 410.61926,583.27017 C 407.59169,583.27017 404.30493,583.09922 401.27735,582.4926 L 401.27735,556.62864 C 403.69831,556.45769 405.51816,556.45769 407.50345,556.45769 C 416.32698,556.45769 424.80308,558.87864 424.80308,569.43378 C 424.80308,580.15988 417.62845,583.27017 410.61926,583.27017 z M 546.67802,519.34925 L 541.83611,529.63968 C 544.9464,527.82535 549.18721,527.3952 552.73316,527.3952 L 568.21845,527.3952 L 568.21845,583.09922 C 568.21845,585.52017 567.09345,588.28855 564.76073,589.33083 L 586.12469,589.33083 C 583.88021,588.29407 582.66697,585.52569 582.66697,583.09922 L 582.66697,527.22424 C 588.46292,527.22424 595.20741,527.47792 599.27174,527.57167 C 602.64674,527.57167 608.44269,523.67829 610.42799,518.40072 C 606.36365,519.26653 602.12284,519.34925 597.97027,519.34925 L 546.67802,519.34925 z M 634.47209,519.34925 L 612.93166,519.34925 C 614.66328,520.21506 616.47762,522.45954 616.47762,525.66358 L 616.47762,583.09922 C 616.47762,586.20951 614.66328,588.54774 612.93166,589.33083 L 634.47209,589.33083 C 632.65224,588.54774 630.92614,586.21502 630.92614,583.09922 L 630.92614,525.66358 C 630.92614,522.46506 632.65776,520.21506 634.47209,519.34925 z M 477.82695,553.60107 C 488.03466,553.60107 497.2001,547.89335 497.2001,536.81983 C 497.2001,523.59006 483.44643,519.34925 472.46114,519.34925 L 447.11557,519.34925 C 449.36557,520.55697 450.40233,523.24263 450.40233,525.66358 L 450.40233,583.09922 C 450.40233,585.52017 449.36557,588.20583 447.11557,589.33083 L 468.13762,589.33083 C 465.88762,588.29407 464.85085,585.43745 464.85085,583.09922 L 464.85085,556.36945 C 473.93357,556.45769 477.47952,565.88783 481.54386,572.72055 C 484.13577,576.96135 490.71481,587.68194 495.46848,589.06613 C 498.06039,589.84921 500.99973,589.76098 503.68539,589.76098 C 508.17988,589.76098 512.67987,589.23708 517.0034,587.94113 C 500.92253,587.85289 492.35819,553.68931 477.82695,553.60107 z M 468.13762,550.14335 C 467.01262,550.14335 465.97585,550.05512 464.85085,549.9724 L 464.85085,525.7463 C 466.06409,525.57535 467.18357,525.39888 468.39681,525.39888 C 476.09533,525.39888 481.80305,528.50917 481.80305,537.24446 C 481.80305,545.81982 476.0071,550.14335 468.13762,550.14335 z M 539.58611,519.34925 L 518.05119,519.34925 C 519.7773,520.21506 521.59715,522.45954 521.59715,525.66358 L 521.59715,583.09922 C 521.59715,586.20951 519.78281,588.54774 518.05119,589.33083 L 539.58611,589.33083 C 537.77177,588.54774 536.04016,586.21502 536.04016,583.09922 L 536.04016,525.66358 C 536.04016,522.46506 537.77177,520.21506 539.58611,519.34925 z M 764.39299,519.34925 L 743.63013,519.34925 C 745.19079,520.12682 746.83417,522.45954 746.83417,525.66358 L 746.83417,549.19482 C 743.02903,549.54225 737.83969,549.80144 731.9555,549.80144 C 725.90036,549.80144 720.70551,549.62497 716.90588,549.19482 L 716.90588,525.66358 C 716.90588,522.46506 718.46102,520.13234 720.02168,519.34925 L 699.25883,519.34925 C 700.81397,520.12682 702.45735,522.45954 702.45735,525.66358 L 702.45735,583.09922 C 702.45735,586.20951 700.81397,588.63598 699.25883,589.33083 L 720.02168,589.33083 C 718.46102,588.54774 716.90588,586.21502 716.90588,583.09922 L 716.90588,557.0643 C 720.71102,556.62864 725.98859,556.45769 731.9555,556.45769 C 737.83418,556.45769 743.02351,556.62864 746.83417,557.0643 L 746.83417,583.09922 C 746.83417,586.20951 745.19079,588.63598 743.63013,589.33083 L 764.39299,589.33083 C 762.83233,588.54774 761.27718,586.21502 761.27718,583.09922 L 761.27718,525.66358 C 761.27718,522.46506 762.83784,520.12682 764.39299,519.34925 z M 659.38201,532.58454 C 659.38201,526.78858 664.65958,524.27939 669.76068,524.27939 C 676.16325,524.27939 683.0842,528.43196 685.84707,534.23343 L 685.0695,521.1691 C 680.57501,519.09557 673.47759,518.40623 668.54744,518.40623 C 657.56216,518.40623 645.01621,522.72976 645.01621,535.8713 C 645.01621,557.15254 676.41693,560.18011 676.41693,573.49812 C 676.41693,581.11392 671.22759,584.1415 664.2184,584.1415 C 655.05297,584.1415 647.69635,577.82165 644.1504,569.69849 C 643.71474,572.55511 643.46106,575.40621 643.46106,578.26282 C 643.46106,580.68378 643.63202,583.10473 643.97944,585.44297 C 649.68716,589.33635 658.85811,590.6323 665.60259,590.6323 C 678.49045,590.6323 691.29008,584.57164 691.29008,569.95768 C 691.30111,549.80144 659.38201,546.42093 659.38201,532.58454 z M 1142.4093,519.34925 C 1143.4461,520.03859 1143.8818,520.6452 1143.8818,521.68748 C 1143.8818,522.46506 1143.0215,524.0202 1141.72,526.2702 C 1141.72,526.2702 1131.1649,544.60659 1130.0399,546.68012 L 1116.7219,525.57535 C 1112.5693,519.09006 1109.1998,518.48344 1102.4498,518.48344 C 1098.3855,518.48344 1092.3303,519.60844 1090.3395,520.39153 C 1097.6024,520.39153 1103.663,530.42277 1104.959,532.58454 L 1119.3193,555.68011 L 1119.3193,583.09922 C 1119.3193,585.2665 1118.3652,588.20583 1116.2917,589.33083 L 1136.8726,589.33083 C 1134.7108,588.29407 1133.7623,585.34922 1133.7623,583.09922 L 1133.7623,555.76835 L 1150.3726,526.70035 C 1151.9277,523.93197 1154.3542,520.73344 1157.2935,519.34925 L 1142.4093,519.34925 L 1142.4093,519.34925 z M 1048.6484,519.34925 L 1034.9774,519.34925 C 1035.8377,520.03859 1036.1906,520.55697 1036.1906,521.42278 C 1036.1906,522.11763 1036.0197,522.54778 1035.6723,523.67278 L 1021.9131,564.84555 L 1003.7532,519.34925 L 987.23111,566.57165 L 971.74583,524.70954 C 971.48664,523.92645 971.14472,522.97792 971.14472,522.28859 C 971.14472,520.81616 971.74583,520.03859 972.61715,519.34925 L 951.94253,519.34925 C 954.53995,520.73344 956.26605,523.33086 957.30833,526.01101 L 981.09325,589.32532 L 987.66126,589.32532 L 1001.5032,550.14335 L 1011.1043,574.44665 C 1012.3175,577.55694 1015.5987,586.03855 1017.766,588.02936 C 1018.7146,588.7187 1020.4407,589.32532 1022.1778,589.32532 L 1043.4535,526.18197 C 1044.3248,523.59006 1046.1392,520.6452 1048.6484,519.34925 z M 1172.0784,532.58454 C 1172.0784,526.78858 1177.356,524.27939 1182.4626,524.27939 C 1188.8597,524.27939 1195.7806,528.43196 1198.549,534.23343 L 1197.7715,521.1691 C 1193.2715,519.09557 1186.174,518.40623 1181.2494,518.40623 C 1170.2641,518.40623 1157.7182,522.72976 1157.7182,535.8713 C 1157.7182,557.15254 1189.1189,560.18011 1189.1189,573.49812 C 1189.1189,581.11392 1183.9295,584.1415 1176.9204,584.1415 C 1167.7494,584.1415 1160.3983,577.82165 1156.8468,569.69849 C 1156.4167,572.55511 1156.1575,575.40621 1156.1575,578.26282 C 1156.1575,580.68378 1156.3285,583.10473 1156.6759,585.44297 C 1162.3836,589.33635 1171.5546,590.6323 1178.3045,590.6323 C 1191.2806,590.6323 1203.992,584.57164 1203.992,569.95768 C 1203.9976,549.80144 1172.0784,546.42093 1172.0784,532.58454 z M 1102.4498,583.87679 L 1078.9186,519.34925 L 1060.7531,519.34925 C 1062.2256,520.12682 1063.3506,521.68748 1063.3506,523.33086 C 1063.3506,523.67829 1063.2623,523.93197 1063.1796,524.19116 L 1039.9958,583.96503 C 1039.1355,586.12679 1037.3212,588.28855 1035.2421,589.33083 L 1049.3432,589.33083 C 1048.5656,588.98341 1047.6998,588.46502 1047.6998,587.42274 C 1047.6998,586.9926 1047.959,586.20951 1048.8248,584.13598 C 1048.8248,584.13598 1054.9627,568.56797 1055.5748,567.01283 C 1059.7219,566.57717 1063.9627,566.48893 1068.1098,566.48893 C 1072.5215,566.48893 1077.0215,566.48893 1081.345,567.01283 C 1082.0344,568.82717 1087.7421,584.48341 1087.7421,584.48341 C 1088.1778,585.77936 1088.4369,586.47422 1088.4369,586.90436 C 1088.4369,588.1176 1087.8303,588.63046 1087.141,589.32532 L 1107.209,589.32532 C 1105.4719,588.37679 1103.3983,586.47422 1102.4498,583.87679 z M 1067.9333,560.35107 C 1064.7348,560.35107 1061.448,560.26283 1058.2439,559.91541 L 1068.8873,532.67277 L 1078.7476,559.91541 C 1075.1961,560.35107 1071.5675,560.35107 1067.9333,560.35107 z M 856.53265,583.87679 L 833.00141,519.34925 L 814.84149,519.34925 C 816.31392,520.12682 817.4334,521.68748 817.4334,523.33086 C 817.4334,523.67829 817.34517,523.93197 817.26245,524.19116 L 794.07863,583.96503 C 793.21282,586.12679 791.39849,588.28855 789.31944,589.33083 L 803.42054,589.33083 C 802.64297,588.98341 801.77716,588.46502 801.77716,587.42274 C 801.77716,586.9926 802.03635,586.20951 802.90216,584.13598 C 802.90216,584.13598 809.04554,568.56797 809.65216,567.01283 C 813.80473,566.57717 818.04002,566.48893 822.19259,566.48893 C 826.60435,566.48893 831.10435,566.48893 835.42788,567.01283 C 836.11722,568.82717 841.83045,584.48341 841.83045,584.48341 C 842.34883,585.77936 842.51979,586.47422 842.51979,586.90436 C 842.51979,588.1176 841.91317,588.63046 841.22383,589.32532 L 861.29184,589.32532 C 859.56022,588.37679 857.48669,586.47422 856.53265,583.87679 z M 822.02163,560.35107 C 818.81759,560.35107 815.53083,560.26283 812.3323,559.91541 L 822.97016,532.67277 L 832.83045,559.91541 C 829.2845,560.35107 825.65582,560.35107 822.02163,560.35107 z M 886.37822,519.34925 L 864.83779,519.34925 C 866.56941,520.21506 868.38926,522.45954 868.38926,525.66358 L 868.38926,583.09922 C 868.38926,586.20951 866.56941,588.54774 864.83779,589.33083 L 886.37822,589.33083 C 884.55837,588.54774 882.83227,586.21502 882.83227,583.09922 L 882.83227,525.66358 C 882.82675,522.46506 884.55837,520.21506 886.37822,519.34925 z M 930.31938,553.60107 C 937.92967,553.60107 947.96091,547.89335 947.96091,536.81983 C 947.96091,523.59006 934.20724,519.34925 923.22195,519.34925 L 897.88189,519.34925 C 900.13189,520.55697 901.16865,523.24263 901.16865,525.66358 L 901.16865,583.09922 C 901.16865,585.52017 900.13189,588.20583 897.88189,589.33083 L 918.90394,589.33083 C 916.65394,588.29407 915.61166,585.43745 915.61166,583.09922 L 915.61166,556.36945 C 924.69438,556.36945 929.97195,565.88783 934.03629,572.72055 C 936.63371,576.96135 943.20724,587.68194 947.96091,589.06613 C 950.55834,589.84921 953.49767,589.76098 956.17782,589.76098 C 960.6723,589.76098 965.1723,589.23708 969.50134,587.94113 C 954.53444,587.94113 945.45172,554.46688 930.31938,553.60107 z M 918.89843,550.14335 C 917.77343,550.14335 916.73115,550.05512 915.60615,549.9724 L 915.60615,525.7463 C 916.81938,525.57535 917.94438,525.39888 919.15762,525.39888 C 926.85614,525.39888 932.56386,528.50917 932.56386,537.24446 C 932.56386,545.81982 926.76791,550.14335 918.89843,550.14335 z"
         id="path3362"
         style="fill:#00054c;fill-opacity:1;fill-rule:evenodd" />
      <path
         d="M 1386.821,470.41729 C 1374.5508,482.03677 1348.7309,492.36581 1336.4607,496.88235 C 1319.0343,503.34007 1311.2916,505.92646 1301.6023,509.15256 C 1290.6335,512.37866 1268.674,519.4816 1268.674,519.4816 C 1313.8615,533.03674 1346.1445,536.90255 1346.1445,536.90255 C 1346.1445,536.90255 1360.9901,532.40807 1384.8798,519.4816 C 1397.7897,513.0294 1403.6022,509.15256 1408.1188,504.63602 C 1410.06,503.34558 1414.571,498.82352 1415.2162,493.01654 C 1415.2162,492.37132 1415.8614,491.7261 1415.8614,490.43014 C 1415.8614,490.43014 1415.8614,489.79044 1415.8614,489.14522 C 1415.2162,488.5 1415.2162,487.85478 1415.2162,487.85478 C 1415.2162,487.85478 1415.2162,486.56434 1414.571,485.26838 C 1414.571,484.62316 1413.2861,481.39706 1410.6997,479.4614 C 1408.764,478.16545 1406.1831,474.93934 1396.4993,471.71324 C 1393.2732,470.4228 1387.4552,469.13236 1387.4552,469.13236 L 1386.821,470.41729 L 1386.821,470.41729 z"
         id="path3364"
         style="fill:url(#linearGradient3436);fill-opacity:1;fill-rule:evenodd" />
      <path
         d="M 1415.8669,489.77941 C 1415.8669,489.77941 1415.8669,488.48897 1415.2217,487.84375 C 1415.2217,486.55331 1414.5765,485.90809 1413.9368,484.61765 C 1413.2916,483.97243 1411.9956,482.68199 1410.7052,480.74633 C 1409.4202,480.09559 1408.1243,478.81067 1406.8339,477.52022 C 1400.3706,473.64339 1392.6335,471.70773 1385.5306,470.41729 C 1374.5618,469.12685 1361.6464,469.12685 1360.3614,469.12685 C 1356.4846,469.12685 1330.0195,469.12685 1323.5618,469.77207 C 1293.8652,470.4228 1257.0711,470.4228 1247.3872,470.4228 C 1148.6244,470.4228 1105.3616,468.48163 1057.5987,458.80332 C 1016.9278,451.05516 994.32854,443.31252 994.32854,443.31252 C 1030.4829,442.02208 1240.2843,432.98348 1278.3744,432.33826 C 1303.549,431.69304 1320.981,431.04231 1335.1813,432.33826 C 1342.9295,432.33826 1349.3817,432.989 1357.7806,434.92466 C 1365.5287,436.20958 1372.6261,438.15076 1376.5085,439.4412 C 1384.8964,442.6673 1392.6445,447.18936 1395.8706,452.35663 C 1395.8706,452.35663 1397.1611,453.00185 1398.4515,454.932 C 1399.7475,457.5184 1401.6831,460.09928 1402.3283,460.7445 C 1407.4956,469.13236 1410.0765,473.65442 1410.7162,475.59008 C 1412.0066,477.52574 1412.6519,479.46692 1413.3026,481.40258 C 1414.5875,482.69302 1414.5875,483.98346 1414.5875,484.62868 C 1415.2327,486.56434 1415.2327,488.50551 1415.878,489.15073 L 1415.878,489.77941 L 1415.8669,489.77941 z"
         id="path3366"
         style="fill:url(#linearGradient3438);fill-opacity:1;fill-rule:evenodd" />
    </g>
  </g>
</svg>
