<?xml version="1.0" encoding="utf-8"?>
<!-- Generator: Adobe Illustrator 23.0.6, SVG Export Plug-In . SVG Version: 6.00 Build 0)  -->
<svg version="1.1" id="left_panel_-_mainmenu_2__x28_копия_x29_"
	 xmlns="http://www.w3.org/2000/svg" xmlns:xlink="http://www.w3.org/1999/xlink" x="0px" y="0px" viewBox="0 0 56 56"
	 style="enable-background:new 0 0 56 56;" xml:space="preserve">
<path d="M49.85,12.3c3.39,0,6.15-2.76,6.15-6.15S53.24,0,49.85,0S43.7,2.76,43.7,6.15c0,1.02,0.24,2,0.73,2.9l-9.93,9.93
	c-1.43-1.11-3.15-1.7-4.97-1.7c-1.81,0-3.53,0.59-4.97,1.7l-7.74-7.73c0.38-0.64,0.57-1.33,0.57-2.05c0-2.27-1.85-4.11-4.12-4.11
	c-2.27,0-4.11,1.85-4.11,4.11s1.85,4.11,4.11,4.11c0.71,0,1.4-0.19,2.05-0.56l7.74,7.74c-1.11,1.45-1.7,3.17-1.7,4.97
	c0,1.81,0.59,3.52,1.7,4.97L10.24,43.24c-1.13-1.01-2.58-1.57-4.09-1.57C2.76,41.67,0,44.43,0,47.82c0,3.39,2.76,6.14,6.15,6.14
	s6.15-2.76,6.15-6.14c0-1.01-0.25-2.01-0.73-2.9l12.98-12.98c1.14,0.88,2.49,1.44,3.91,1.62V43.8c-2.95,0.52-5.08,3.05-5.08,6.05
	c0,3.39,2.76,6.15,6.15,6.15c3.39,0,6.15-2.76,6.15-6.15c0-2.99-2.13-5.53-5.08-6.05V33.56c1.42-0.18,2.77-0.75,3.91-1.62l7.73,7.74
	c-0.37,0.65-0.56,1.34-0.56,2.05c0,2.27,1.85,4.11,4.11,4.11c2.27,0,4.12-1.85,4.12-4.11c0-2.27-1.85-4.12-4.12-4.12
	c-0.71,0-1.4,0.19-2.04,0.56l-7.74-7.74c1.11-1.45,1.7-3.17,1.7-4.97c0-1.81-0.59-3.53-1.7-4.97l9.76-9.76
	C46.9,11.74,48.35,12.3,49.85,12.3z M43.8,41.72c0-1.09,0.89-1.99,1.98-1.99c1.09,0,1.99,0.89,1.99,1.99c0,1.09-0.89,1.98-1.99,1.98
	C44.69,43.7,43.8,42.81,43.8,41.72z M10.16,47.82c0,2.21-1.8,4.01-4.01,4.01s-4.01-1.8-4.01-4.01c0-2.22,1.8-4.02,4.01-4.02
	S10.16,45.6,10.16,47.82z M15.25,9.2c0,1.09-0.89,1.98-1.98,1.98c-1.09,0-1.98-0.89-1.98-1.98c0-1.09,0.89-1.98,1.98-1.98
	C14.36,7.22,15.25,8.1,15.25,9.2z M35.57,25.46c0,3.34-2.71,6.05-6.05,6.05s-6.05-2.71-6.05-6.05s2.71-6.05,6.05-6.05
	S35.57,22.12,35.57,25.46z M33.54,49.85c0,2.21-1.8,4.01-4.01,4.01s-4.01-1.8-4.01-4.01s1.8-4.01,4.01-4.01S33.54,47.64,33.54,49.85
	z M45.84,6.15c0-2.21,1.8-4.01,4.01-4.01s4.01,1.8,4.01,4.01s-1.8,4.01-4.01,4.01S45.84,8.36,45.84,6.15z"/>
</svg>
