<?xml version="1.0" encoding="utf-8"?>
<!-- Generator: Adobe Illustrator 23.0.6, SVG Export Plug-In . SVG Version: 6.00 Build 0)  -->
<svg version="1.1" id="Слой_1" xmlns="http://www.w3.org/2000/svg" xmlns:xlink="http://www.w3.org/1999/xlink" x="0px" y="0px"
	 viewBox="0 0 56 56" style="enable-background:new 0 0 56 56;" xml:space="preserve">
<path d="M55.98,27.14c-0.1-3.4-0.8-6.71-2.11-9.86c-1.42-3.42-3.46-6.47-6.07-9.08c-2.61-2.61-5.67-4.65-9.08-6.07
	c-3.15-1.3-6.47-2.01-9.87-2.11V0H28h-0.85v0.03c-4.41,0.14-8.77,1.31-12.64,3.44c-4.12,2.27-7.63,5.56-10.15,9.53
	c-2.52,3.97-4.01,8.55-4.3,13.24c-0.28,4.38,0.5,8.78,2.23,12.81l-0.02,0.01l0.36,0.77c0.01,0.02,0.02,0.03,0.02,0.05
	c0.01,0.01,0.01,0.03,0.02,0.04l0.36,0.77l0.02-0.01c3.22,6.36,8.65,11.18,15.38,13.63c3.13,1.14,6.36,1.7,9.59,1.7
	c3.79,0,7.56-0.79,11.13-2.34l0.01,0.02l0.67-0.32c0,0,0,0,0.01,0L40.6,53l-0.01-0.03c4.52-2.27,8.33-5.71,11.05-9.99
	c2.7-4.25,4.18-9.13,4.33-14.15H56v-0.85v-0.85H55.98z M38.06,3.7c3.21,1.33,6.08,3.25,8.53,5.7c2.45,2.45,4.37,5.32,5.7,8.53
	c1.22,2.94,1.89,6.04,1.99,9.21h-7c-0.1-2.25-0.59-4.45-1.45-6.54c-0.98-2.35-2.38-4.46-4.19-6.26c-1.8-1.8-3.91-3.21-6.27-4.19
	C33.3,9.29,31.1,8.8,28.85,8.7V1.71C32.02,1.81,35.12,2.48,38.06,3.7z M45.49,29.61c-0.01,0.14-0.03,0.28-0.05,0.42
	c-0.05,0.44-0.12,0.88-0.2,1.31c-0.02,0.09-0.03,0.18-0.05,0.27c-0.11,0.53-0.25,1.06-0.41,1.58c-0.01,0.04-0.03,0.08-0.04,0.12
	c-0.15,0.47-0.32,0.94-0.51,1.39c-0.04,0.09-0.07,0.17-0.11,0.26c-0.2,0.47-0.42,0.93-0.67,1.38c-0.01,0.01-0.01,0.03-0.02,0.04
	c-0.23,0.43-0.49,0.84-0.76,1.24l-5.27-3.83l-0.81-0.59c0.95-1.57,1.45-3.35,1.45-5.21s-0.5-3.64-1.45-5.21l6.08-4.42
	c0.27,0.41,0.52,0.82,0.76,1.24c0.01,0.01,0.01,0.02,0.02,0.03c0.24,0.45,0.46,0.91,0.67,1.39c0.04,0.09,0.07,0.17,0.11,0.26
	c0.19,0.46,0.36,0.92,0.51,1.39c0.01,0.04,0.03,0.08,0.04,0.12c0.16,0.52,0.29,1.04,0.41,1.58c0.02,0.09,0.03,0.18,0.05,0.27
	c0.08,0.43,0.15,0.87,0.2,1.31c0.02,0.14,0.03,0.28,0.05,0.42c0.05,0.53,0.08,1.07,0.08,1.61C45.58,28.54,45.54,29.07,45.49,29.61z
	 M41.26,39.49c-0.64,0.74-1.33,1.43-2.09,2.06c0,0,0,0,0,0c-0.26,0.21-0.54,0.41-0.81,0.6c-0.21,0.15-0.41,0.31-0.63,0.46
	c-0.25,0.17-0.51,0.31-0.76,0.46c-0.26,0.16-0.52,0.31-0.79,0.46c-0.24,0.12-0.48,0.23-0.72,0.35c-0.31,0.15-0.62,0.29-0.94,0.42
	c-0.22,0.09-0.44,0.16-0.66,0.24c-0.36,0.13-0.72,0.25-1.08,0.35c-0.21,0.06-0.42,0.11-0.64,0.16c-0.37,0.09-0.74,0.17-1.12,0.23
	c-0.23,0.04-0.47,0.08-0.71,0.11c-0.35,0.05-0.69,0.08-1.04,0.11c-0.14,0.01-0.29,0.01-0.43,0.02v-7.51
	c1.29-0.11,2.56-0.47,3.72-1.06c1.16-0.59,2.2-1.4,3.04-2.38l6.08,4.42c-0.04,0.05-0.07,0.1-0.11,0.15
	C41.48,39.26,41.37,39.37,41.26,39.49z M26.72,45.5c-0.35-0.03-0.7-0.06-1.04-0.11c-0.24-0.03-0.47-0.07-0.71-0.11
	c-0.38-0.07-0.75-0.15-1.12-0.24c-0.21-0.05-0.42-0.1-0.63-0.16c-0.36-0.1-0.72-0.22-1.08-0.35c-0.22-0.08-0.44-0.15-0.66-0.24
	c-0.32-0.13-0.63-0.27-0.94-0.42c-0.24-0.11-0.49-0.23-0.73-0.35c-0.27-0.14-0.52-0.3-0.78-0.45c-0.26-0.15-0.52-0.3-0.77-0.47
	c-0.22-0.15-0.42-0.31-0.63-0.46c-0.27-0.2-0.54-0.39-0.8-0.6c-0.02-0.02-0.04-0.04-0.07-0.06c-0.73-0.61-1.39-1.28-2.02-1.99
	c-0.11-0.12-0.22-0.24-0.33-0.37c-0.04-0.05-0.07-0.1-0.11-0.15l4.93-3.58l1.15-0.83c0.85,0.98,1.89,1.8,3.04,2.38
	c1.16,0.59,2.43,0.95,3.72,1.06v7.51C27.01,45.51,26.86,45.51,26.72,45.5z M12.53,36.33c-0.24-0.45-0.46-0.91-0.67-1.39
	c-0.04-0.08-0.07-0.17-0.11-0.25c-0.19-0.46-0.36-0.93-0.52-1.41c-0.01-0.03-0.02-0.07-0.03-0.1c-0.16-0.52-0.3-1.05-0.41-1.58
	c-0.02-0.09-0.03-0.17-0.05-0.26c-0.08-0.43-0.15-0.88-0.2-1.32c-0.02-0.14-0.03-0.28-0.04-0.41c-0.05-0.53-0.08-1.07-0.08-1.61
	c0-0.54,0.03-1.08,0.08-1.61c0.01-0.14,0.03-0.28,0.04-0.41c0.05-0.45,0.12-0.89,0.2-1.32c0.02-0.09,0.03-0.17,0.05-0.26
	c0.11-0.54,0.25-1.06,0.41-1.58c0.01-0.03,0.02-0.07,0.03-0.1c0.15-0.48,0.33-0.95,0.52-1.41c0.03-0.08,0.07-0.17,0.11-0.25
	c0.2-0.47,0.43-0.94,0.67-1.39c0.01-0.01,0.01-0.02,0.02-0.04c0.23-0.43,0.49-0.84,0.76-1.24l4.11,2.99l1.97,1.43
	c-0.95,1.57-1.45,3.35-1.45,5.21c0,1.85,0.5,3.64,1.45,5.2l-4.69,3.41l-1.39,1.01c-0.27-0.41-0.52-0.82-0.76-1.24
	C12.55,36.36,12.54,36.35,12.53,36.33z M14.75,16.48c0.59-0.68,1.23-1.32,1.92-1.9c0.06-0.05,0.11-0.1,0.16-0.15
	c0.25-0.2,0.51-0.39,0.77-0.58c0.22-0.16,0.44-0.33,0.66-0.48c0.24-0.16,0.5-0.31,0.75-0.46c0.26-0.16,0.53-0.32,0.8-0.46
	c0.23-0.12,0.48-0.23,0.72-0.35c0.31-0.15,0.62-0.29,0.94-0.42c0.22-0.09,0.44-0.16,0.66-0.24c0.36-0.13,0.71-0.25,1.08-0.35
	c0.21-0.06,0.42-0.11,0.64-0.16c0.37-0.09,0.74-0.17,1.12-0.23c0.24-0.04,0.47-0.08,0.71-0.11c0.35-0.05,0.69-0.08,1.04-0.11
	c0.14-0.01,0.29-0.01,0.43-0.02v7.51c-1.29,0.11-2.56,0.47-3.72,1.06c-1.16,0.59-2.2,1.4-3.04,2.38l-0.73-0.53L14.31,17
	c0.04-0.05,0.07-0.1,0.11-0.15C14.52,16.72,14.64,16.61,14.75,16.48z M29.28,10.49c0.35,0.03,0.7,0.06,1.04,0.11
	c0.24,0.03,0.48,0.07,0.71,0.11c0.37,0.07,0.75,0.14,1.12,0.23c0.21,0.05,0.43,0.1,0.64,0.16c0.36,0.1,0.72,0.22,1.08,0.35
	c0.22,0.08,0.44,0.15,0.66,0.24c0.32,0.13,0.63,0.27,0.94,0.42c0.24,0.11,0.48,0.22,0.72,0.35c0.27,0.14,0.53,0.3,0.79,0.46
	c0.25,0.15,0.51,0.3,0.75,0.46c0.22,0.15,0.43,0.31,0.65,0.47c0.26,0.19,0.54,0.38,0.79,0.59c0.03,0.02,0.05,0.05,0.07,0.07
	c0.73,0.61,1.41,1.29,2.03,2.01c0.1,0.11,0.21,0.22,0.3,0.34c0.04,0.05,0.07,0.1,0.11,0.15l-5.42,3.94l-0.66,0.48
	c-0.85-0.98-1.89-1.8-3.04-2.39c-1.16-0.59-2.43-0.95-3.72-1.06v-7.51C28.99,10.47,29.13,10.48,29.28,10.49z M34.77,32.91
	c-0.77,1.06-1.8,1.94-2.97,2.54c-1.17,0.6-2.48,0.91-3.8,0.91c-1.31,0-2.63-0.32-3.8-0.91c-1.17-0.6-2.2-1.47-2.97-2.54
	c-1.05-1.44-1.6-3.14-1.6-4.91c0-1.78,0.55-3.48,1.6-4.91c0.77-1.06,1.8-1.94,2.97-2.54c1.17-0.6,2.48-0.91,3.8-0.91
	c1.31,0,2.63,0.32,3.8,0.91c1.17,0.6,2.2,1.47,2.97,2.53l0,0c1.05,1.44,1.6,3.14,1.6,4.91S35.81,31.47,34.77,32.91z M1.75,26.34
	c0.28-4.41,1.68-8.71,4.04-12.44c2.37-3.73,5.66-6.83,9.54-8.95c3.62-1.99,7.69-3.1,11.82-3.24v6.99c-2.95,0.13-5.86,0.94-8.45,2.37
	c-2.84,1.56-5.26,3.84-7,6.57c-1.74,2.74-2.76,5.9-2.97,9.13c-0.18,2.93,0.31,5.88,1.43,8.59l-6.34,2.96
	C2.21,34.56,1.49,30.44,1.75,26.34z M19,52.7C12.7,50.41,7.61,45.9,4.58,39.95l6.33-2.98c2.24,4.27,5.93,7.51,10.49,9.16
	c4.58,1.67,9.52,1.55,13.99-0.3l2.96,6.34C32.17,54.81,25.34,55.01,19,52.7z M50.21,42.08c-2.53,3.98-6.06,7.19-10.25,9.33
	l-2.98-6.33c2.99-1.57,5.51-3.89,7.32-6.75c1.81-2.86,2.84-6.13,2.99-9.5h7C54.14,33.54,52.73,38.1,50.21,42.08z"/>
</svg>
