<?xml version="1.0" encoding="UTF-8" standalone="no"?>
<!-- Created with Inkscape (http://www.inkscape.org/) -->

<svg
   xmlns:dc="http://purl.org/dc/elements/1.1/"
   xmlns:cc="http://creativecommons.org/ns#"
   xmlns:rdf="http://www.w3.org/1999/02/22-rdf-syntax-ns#"
   xmlns:svg="http://www.w3.org/2000/svg"
   xmlns="http://www.w3.org/2000/svg"
   xmlns:xlink="http://www.w3.org/1999/xlink"
   xmlns:sodipodi="http://sodipodi.sourceforge.net/DTD/sodipodi-0.dtd"
   xmlns:inkscape="http://www.inkscape.org/namespaces/inkscape"
   width="749"
   height="212"
   id="svg2"
   version="1.1">
  <defs
     id="defs4">
		<linearGradient
   y2="795.98633"
   x2="1"
   y1="795.98633"
   x1="0"
   gradientTransform="matrix(3797.0838,2981.7392,2981.7392,-3797.0838,-2352694.8,3027961.1)"
   gradientUnits="userSpaceOnUse"
   id="linearGradient7289"
   xlink:href="#SVGID_47_"
   inkscape:collect="always" />
<linearGradient
   y2="795.99121"
   x2="1"
   y1="795.99121"
   x1="0"
   gradientTransform="matrix(4069.5529,3195.7659,3195.7659,-4069.5529,-2520915.3,3241925.9)"
   gradientUnits="userSpaceOnUse"
   id="linearGradient7287"
   xlink:href="#SVGID_44_"
   inkscape:collect="always" />
<linearGradient
   y2="796.00098"
   x2="1"
   y1="796.00098"
   x1="0"
   gradientTransform="matrix(4000.2079,3141.3507,3141.3507,-4000.2079,-2478612.1,3188121)"
   gradientUnits="userSpaceOnUse"
   id="linearGradient7285"
   xlink:href="#SVGID_41_"
   inkscape:collect="always" />
<linearGradient
   y2="795.57422"
   x2="1"
   y1="795.57422"
   x1="0"
   gradientTransform="matrix(2214.6218,1383.8562,1383.8562,-2214.6218,-1081845.4,1769733.3)"
   gradientUnits="userSpaceOnUse"
   id="linearGradient7283"
   xlink:href="#SVGID_38_"
   inkscape:collect="always" />
<linearGradient
   y2="796.71478"
   x2="1"
   y1="796.71478"
   x1="0"
   gradientTransform="matrix(2332.4887,2175.0381,2175.0381,-2332.4887,-1717148.3,1866554.5)"
   gradientUnits="userSpaceOnUse"
   id="linearGradient7281"
   xlink:href="#SVGID_35_"
   inkscape:collect="always" />
<linearGradient
   y2="795.97168"
   x2="1"
   y1="795.97168"
   x1="0"
   gradientTransform="matrix(6497.9068,4549.8607,4549.8607,-6497.9068,-3606862.7,5178654.3)"
   gradientUnits="userSpaceOnUse"
   id="linearGradient7279"
   xlink:href="#SVGID_32_"
   inkscape:collect="always" />
<linearGradient
   y2="796.18951"
   x2="1"
   y1="796.18951"
   x1="0"
   gradientTransform="matrix(3838.6319,3579.5211,3579.5211,-3838.6319,-2835319.1,3064316.1)"
   gradientUnits="userSpaceOnUse"
   id="linearGradient7277"
   xlink:href="#SVGID_29_"
   inkscape:collect="always" />

		
	<linearGradient
   gradientTransform="matrix(3.9081,3.6443,3.6443,-3.9081,-2793.804,3146.3169)"
   y2="796.18951"
   x2="1"
   y1="796.18951"
   x1="0"
   gradientUnits="userSpaceOnUse"
   id="SVGID_29_">
			<stop
   id="stop290"
   style="stop-color:#C4161C"
   offset="0" />

			<stop
   id="stop292"
   style="stop-color:#ED1C24"
   offset="0.3" />

			<stop
   id="stop294"
   style="stop-color:#F8ABAD"
   offset="0.5" />

			<stop
   id="stop296"
   style="stop-color:#ED1C24"
   offset="0.7191" />

			<stop
   id="stop298"
   style="stop-color:#C4161C"
   offset="1" />

		</linearGradient>

		
		
			<defs
   id="defs283">
			<path
   d="m 106.025,37.965 -0.627,0.648 c 3.151,-2.292 4.961,-2.486 7.554,-2.465 0.241,0.015 0.471,0.028 0.617,-0.282 l 0.783,-1.052 c -3.629,0.03 -5.269,0.919 -8.327,3.151"
   id="SVGID_27_" />

		</defs>

		
	
		<linearGradient
   gradientTransform="matrix(6.6155,4.6322,4.6322,-6.6155,-3579.3103,5298.9185)"
   y2="795.97168"
   x2="1"
   y1="795.97168"
   x1="0"
   gradientUnits="userSpaceOnUse"
   id="SVGID_32_">
			<stop
   id="stop311"
   style="stop-color:#FFFFFF"
   offset="0" />

			<stop
   id="stop313"
   style="stop-color:#FFFFFF"
   offset="0.3427" />

			<stop
   id="stop315"
   style="stop-color:#FFFFFF"
   offset="0.55" />

			<stop
   id="stop317"
   style="stop-color:#C7D2EC"
   offset="0.9101" />

			<stop
   id="stop319"
   style="stop-color:#C7D2EC"
   offset="1" />

		</linearGradient>

		
		
			<defs
   id="defs304">
			<path
   d="m 106.024,37.962 c 3.076,-2.838 5.642,-4.117 7.897,-4.367 0.2,-0.264 0.89,-1.146 1.1,-1.442 -5.148,0.836 -7.421,4.32 -8.997,5.809"
   id="SVGID_30_" />

		</defs>

		
	
		<linearGradient
   gradientTransform="matrix(2.3747,2.2144,2.2144,-2.3747,-1655.3975,1926.8793)"
   y2="796.71478"
   x2="1"
   y1="796.71478"
   x1="0"
   gradientUnits="userSpaceOnUse"
   id="SVGID_35_">
			<stop
   id="stop332"
   style="stop-color:#00529B"
   offset="0" />

			<stop
   id="stop334"
   style="stop-color:#00529B"
   offset="0.1067" />

			<stop
   id="stop336"
   style="stop-color:#7D97CD"
   offset="0.5" />

			<stop
   id="stop338"
   style="stop-color:#7492C9"
   offset="0.5271" />

			<stop
   id="stop340"
   style="stop-color:#3670B1"
   offset="0.7323" />

			<stop
   id="stop342"
   style="stop-color:#0F5AA1"
   offset="0.8825" />

			<stop
   id="stop344"
   style="stop-color:#00529B"
   offset="0.9607" />

			<stop
   id="stop346"
   style="stop-color:#00529B"
   offset="1" />

		</linearGradient>

		
		
			<defs
   id="defs325">
			<path
   d="m 106.178,37.798 c -0.058,0.058 -0.268,0.289 -0.328,0.343 1.802,-1.334 3.315,-2.716 7.074,-3.229 0.187,-0.212 0.735,-0.932 0.994,-1.317 -3.43,0.469 -5.673,2.381 -7.74,4.203"
   id="SVGID_33_" />

		</defs>

		
	
		<linearGradient
   gradientTransform="matrix(2.2547,1.4089,1.4089,-2.2547,-1008.5975,1828.3059)"
   y2="795.57422"
   x2="1"
   y1="795.57422"
   x1="0"
   gradientUnits="userSpaceOnUse"
   id="SVGID_38_">
			<stop
   id="stop359"
   style="stop-color:#C4161C"
   offset="0" />

			<stop
   id="stop361"
   style="stop-color:#ED1C24"
   offset="0.5" />

			<stop
   id="stop363"
   style="stop-color:#F8ABAD"
   offset="1" />

		</linearGradient>

		
		
			<defs
   id="defs352">
			<path
   d="m 112.728,35.141 c -0.099,0.269 0.056,0.155 0.506,0.423 0.381,0.225 0.301,0.306 0.266,0.421 0.347,-0.494 0.972,-1.217 0.972,-1.217 -0.152,-0.051 -0.317,-0.073 -0.482,-0.073 -0.598,0 -1.204,0.284 -1.262,0.446"
   id="SVGID_36_" />

		</defs>

		
	
		<linearGradient
   gradientTransform="matrix(4.0726,3.1982,3.1982,-4.0726,-2430.6416,3272.3623)"
   y2="796.00098"
   x2="1"
   y1="796.00098"
   x1="0"
   gradientUnits="userSpaceOnUse"
   id="SVGID_41_">
			<stop
   id="stop376"
   style="stop-color:#C7D6EE"
   offset="0" />

			<stop
   id="stop378"
   style="stop-color:#C7D6EE"
   offset="0.073" />

			<stop
   id="stop380"
   style="stop-color:#AFC6E4"
   offset="0.1184" />

			<stop
   id="stop382"
   style="stop-color:#719DCA"
   offset="0.2144" />

			<stop
   id="stop384"
   style="stop-color:#0E5BA1"
   offset="0.3524" />

			<stop
   id="stop386"
   style="stop-color:#00529B"
   offset="0.3708" />

			<stop
   id="stop388"
   style="stop-color:#08579E"
   offset="0.4298" />

			<stop
   id="stop390"
   style="stop-color:#1E66A8"
   offset="0.5221" />

			<stop
   id="stop392"
   style="stop-color:#437EB7"
   offset="0.6362" />

			<stop
   id="stop394"
   style="stop-color:#75A0CC"
   offset="0.7675" />

			<stop
   id="stop396"
   style="stop-color:#B5CAE7"
   offset="0.9118" />

			<stop
   id="stop398"
   style="stop-color:#C7D6EE"
   offset="0.9494" />

			<stop
   id="stop400"
   style="stop-color:#C7D6EE"
   offset="1" />

		</linearGradient>

		
		
			<defs
   id="defs369">
			<path
   d="m 116.204,31.82 c -0.7,0.094 -1.146,0.27 -1.426,0.626 l -0.986,1.314 c 0.215,-0.192 0.864,-0.286 1.565,-0.304 h 0.099 0.09 c 0.094,-0.003 0.199,-0.008 0.309,-0.012 0.997,-0.039 2.381,-0.178 3.183,-1.116 l 1.21,-1.673 0.146,-0.199 c -1.051,1.386 -3.445,1.265 -4.19,1.364"
   id="SVGID_39_" />

		</defs>

		
	
		<linearGradient
   gradientTransform="matrix(4.1432,3.2536,3.2536,-4.1432,-2473.7104,3327.1409)"
   y2="795.99121"
   x2="1"
   y1="795.99121"
   x1="0"
   gradientUnits="userSpaceOnUse"
   id="SVGID_44_">
			<stop
   id="stop413"
   style="stop-color:#FFFFFF"
   offset="0" />

			<stop
   id="stop415"
   style="stop-color:#FFFFFF"
   offset="0.1742" />

			<stop
   id="stop417"
   style="stop-color:#F9FAFD"
   offset="0.2301" />

			<stop
   id="stop419"
   style="stop-color:#E8ECF6"
   offset="0.3056" />

			<stop
   id="stop421"
   style="stop-color:#D9E0F1"
   offset="0.3539" />

			<stop
   id="stop423"
   style="stop-color:#EDF0F8"
   offset="0.4693" />

			<stop
   id="stop425"
   style="stop-color:#FAFBFD"
   offset="0.5916" />

			<stop
   id="stop427"
   style="stop-color:#FFFFFF"
   offset="0.7" />

			<stop
   id="stop429"
   style="stop-color:#FFFFFF"
   offset="1" />

		</linearGradient>

		
		
			<defs
   id="defs406">
			<path
   d="m 118.01,30.295 c -0.308,0.04 -1.002,0.03 -1.581,0.399 -0.577,0.367 -1.269,1.243 -1.611,1.703 0.318,-0.339 0.74,-0.435 1.354,-0.506 0.621,-0.071 1.516,-0.059 2.153,-0.147 0.607,-0.08 1.174,-0.203 1.964,-1.288 l 1.071,-1.441 c -1.11,1.095 -2.322,1.14 -3.35,1.28"
   id="SVGID_42_" />

		</defs>

		
	
		<linearGradient
   gradientTransform="matrix(3.8658,3.0357,3.0357,-3.8658,-2302.4456,3109.304)"
   y2="795.98633"
   x2="1"
   y1="795.98633"
   x1="0"
   gradientUnits="userSpaceOnUse"
   id="SVGID_47_">
			<stop
   id="stop442"
   style="stop-color:#F8ABAD"
   offset="0" />

			<stop
   id="stop444"
   style="stop-color:#F8ABAD"
   offset="0.0562" />

			<stop
   id="stop446"
   style="stop-color:#F8A6A8"
   offset="0.1011" />

			<stop
   id="stop448"
   style="stop-color:#F6979A"
   offset="0.1557" />

			<stop
   id="stop450"
   style="stop-color:#F57E82"
   offset="0.2151" />

			<stop
   id="stop452"
   style="stop-color:#F25C62"
   offset="0.2782" />

			<stop
   id="stop454"
   style="stop-color:#EF3138"
   offset="0.3433" />

			<stop
   id="stop456"
   style="stop-color:#ED1C24"
   offset="0.3708" />

			<stop
   id="stop458"
   style="stop-color:#D1181E"
   offset="0.46" />

			<stop
   id="stop460"
   style="stop-color:#C4161C"
   offset="0.5169" />

			<stop
   id="stop462"
   style="stop-color:#D1181E"
   offset="0.6065" />

			<stop
   id="stop464"
   style="stop-color:#ED1C24"
   offset="0.7472" />

			<stop
   id="stop466"
   style="stop-color:#F8ABAD"
   offset="0.9607" />

			<stop
   id="stop468"
   style="stop-color:#F8ABAD"
   offset="1" />

		</linearGradient>

		
<linearGradient
   inkscape:collect="always"
   xlink:href="#SVGID_29_"
   id="linearGradient3819"
   gradientUnits="userSpaceOnUse"
   gradientTransform="matrix(3838.6319,3579.5211,3579.5211,-3838.6319,-2835319.1,3064316.1)"
   x1="0"
   y1="796.18951"
   x2="1"
   y2="796.18951" />
<linearGradient
   inkscape:collect="always"
   xlink:href="#SVGID_32_"
   id="linearGradient3821"
   gradientUnits="userSpaceOnUse"
   gradientTransform="matrix(6497.9068,4549.8607,4549.8607,-6497.9068,-3606862.7,5178654.3)"
   x1="0"
   y1="795.97168"
   x2="1"
   y2="795.97168" />
<linearGradient
   inkscape:collect="always"
   xlink:href="#SVGID_35_"
   id="linearGradient3823"
   gradientUnits="userSpaceOnUse"
   gradientTransform="matrix(2332.4887,2175.0381,2175.0381,-2332.4887,-1717148.3,1866554.5)"
   x1="0"
   y1="796.71478"
   x2="1"
   y2="796.71478" />
<linearGradient
   inkscape:collect="always"
   xlink:href="#SVGID_38_"
   id="linearGradient3825"
   gradientUnits="userSpaceOnUse"
   gradientTransform="matrix(2214.6218,1383.8562,1383.8562,-2214.6218,-1081845.4,1769733.3)"
   x1="0"
   y1="795.57422"
   x2="1"
   y2="795.57422" />
<linearGradient
   inkscape:collect="always"
   xlink:href="#SVGID_41_"
   id="linearGradient3827"
   gradientUnits="userSpaceOnUse"
   gradientTransform="matrix(4000.2079,3141.3507,3141.3507,-4000.2079,-2478612.1,3188121)"
   x1="0"
   y1="796.00098"
   x2="1"
   y2="796.00098" />
<linearGradient
   inkscape:collect="always"
   xlink:href="#SVGID_44_"
   id="linearGradient3829"
   gradientUnits="userSpaceOnUse"
   gradientTransform="matrix(4069.5529,3195.7659,3195.7659,-4069.5529,-2520915.3,3241925.9)"
   x1="0"
   y1="795.99121"
   x2="1"
   y2="795.99121" />
<linearGradient
   inkscape:collect="always"
   xlink:href="#SVGID_47_"
   id="linearGradient3831"
   gradientUnits="userSpaceOnUse"
   gradientTransform="matrix(3797.0838,2981.7392,2981.7392,-3797.0838,-2352694.8,3027961.1)"
   x1="0"
   y1="795.98633"
   x2="1"
   y2="795.98633" />
<linearGradient
   inkscape:collect="always"
   xlink:href="#SVGID_47_"
   id="linearGradient3857"
   gradientUnits="userSpaceOnUse"
   gradientTransform="matrix(51.183702,40.193069,40.193069,-51.183702,-31342.903,41374.106)"
   x1="0"
   y1="795.98633"
   x2="1"
   y2="795.98633" />
<linearGradient
   inkscape:collect="always"
   xlink:href="#SVGID_44_"
   id="linearGradient3860"
   gradientUnits="userSpaceOnUse"
   gradientTransform="matrix(54.856515,43.078093,43.078093,-54.856515,-33610.471,44258.296)"
   x1="0"
   y1="795.99121"
   x2="1"
   y2="795.99121" />
<linearGradient
   inkscape:collect="always"
   xlink:href="#SVGID_41_"
   id="linearGradient3863"
   gradientUnits="userSpaceOnUse"
   gradientTransform="matrix(53.921762,42.344591,42.344591,-53.921762,-33040.235,43533.02)"
   x1="0"
   y1="796.00098"
   x2="1"
   y2="796.00098" />
<linearGradient
   inkscape:collect="always"
   xlink:href="#SVGID_38_"
   id="linearGradient3866"
   gradientUnits="userSpaceOnUse"
   gradientTransform="matrix(29.852526,18.654022,18.654022,-29.852526,-14212.183,24413.522)"
   x1="0"
   y1="795.57422"
   x2="1"
   y2="795.57422" />
<linearGradient
   inkscape:collect="always"
   xlink:href="#SVGID_35_"
   id="linearGradient3869"
   gradientUnits="userSpaceOnUse"
   gradientTransform="matrix(31.441341,29.318948,29.318948,-31.441341,-22775.901,25718.647)"
   x1="0"
   y1="796.71478"
   x2="1"
   y2="796.71478" />
<linearGradient
   inkscape:collect="always"
   xlink:href="#SVGID_32_"
   id="linearGradient3872"
   gradientUnits="userSpaceOnUse"
   gradientTransform="matrix(87.590094,61.330939,61.330939,-87.590094,-48248.76,70364.891)"
   x1="0"
   y1="795.97168"
   x2="1"
   y2="795.97168" />
<linearGradient
   inkscape:collect="always"
   xlink:href="#SVGID_29_"
   id="linearGradient3875"
   gradientUnits="userSpaceOnUse"
   gradientTransform="matrix(51.74376,48.251014,48.251014,-51.74376,-37848.553,41864.162)"
   x1="0"
   y1="796.18951"
   x2="1"
   y2="796.18951" />
</defs>
  <g
     inkscape:label="Layer 1"
     inkscape:groupmode="layer"
     id="layer1"
     transform="translate(-0.50947594,-589.89212)">
    <g
       id="g5"
       transform="translate(85.776565,251.19707)">
		<defs
   id="defs7">
			<rect
   x="0"
   height="72.786003"
   width="612"
   y="0.5"
   id="SVGID_1_" />

		</defs>

		<clipPath
   id="SVGID_2_">
			<use
   height="792"
   width="612"
   y="0"
   x="0"
   style="overflow:visible"
   id="use11"
   overflow="visible"
   xlink:href="#SVGID_1_" />

		</clipPath>

	</g>
    <path
       clip-path="none"
       d="m 704.39461,608.69308 0,0 0,0 0,0 z m -42.3287,25.24893 c -0.97977,1.25781 -8.80469,11.43948 -8.80469,11.43948 l -3.7602,4.92532 c -27.16875,3.13792 -55.92632,17.3181 -87.23923,42.89803 19.84696,-21.27689 49.17385,-50.15362 99.80412,-59.26283 m 46.7509,-25.80502 c 10.73775,-1.31077 22.33611,-3.33651 34.23898,-11.82343 -4.21036,5.58733 -9.50641,12.76348 -9.50641,12.76348 -10.53915,14.47147 -18.13898,15.68956 -25.27541,16.64285 l -15.31884,1.05921 -13.14745,0.83413 c -5.58733,0.662 -9.58585,1.86686 -13.16069,3.61455 4.97829,-6.24934 11.50568,-13.73001 17.26513,-17.41077 6.05074,-3.86612 13.10774,-4.43544 17.76826,-4.85913 l 2.70099,-0.2648 4.43544,-0.55609 z m -0.27804,-2.2111 -4.44868,0.58257 -2.59507,0.25156 c -4.87237,0.41044 -12.2736,1.04597 -18.76127,5.20337 -6.48766,4.13092 -13.79621,12.71053 -18.94663,19.33059 -55.96603,9.30782 -86.6037,42.48759 -106.9273,64.42649 l -12.65757,14.82895 2.06546,-0.62229 c 38.15806,-35.15255 72.15872,-54.01974 103.96152,-57.51513 l 0.47664,-0.0662 4.27657,-5.61381 8.88412,-11.55864 c 3.68076,-3.31003 8.72525,-4.4884 16.17945,-5.33577 l 13.00181,-0.84737 15.51743,-1.08569 c 7.14967,-0.96653 15.66308,-2.29054 26.74507,-17.50345 l 14.18018,-19.06579 -1.66826,-1.44318 c -12.84293,12.68405 -26.2949,14.47147 -39.28347,16.0338"
       id="path275"
       style="fill:#00529b" />
    <path
       clip-path="none"
       d="m 45.446479,731.53502 -0.701727,-1.90657 -33.08709,1.90657 6.699507,3.2306 27.08931,-3.2306 z m 4.514885,5.85214 -0.847368,-0.7282 -1.390214,-1.45642 -16.523685,3.11143 7.00403,2.38323 11.757237,-3.31004 z m 13.107731,-1.33725 c 0.807648,-0.15888 1.98602,-0.58257 2.912829,-1.28429 l -4.792928,-9.49318 4.99153,-2.35674 -4.210362,-3.66752 -1.707977,0.78117 -7.268832,3.31003 2.131661,4.73997 3.442434,-1.5491 4.501645,9.51966 z m 8.182402,-19.84696 c 1.840378,2.17138 3.190871,4.85913 3.905838,7.90436 h -3.03199 c -0.225082,-0.84737 -0.516365,-1.76094 -0.873848,-2.60831 -2.012501,-5.33577 -6.196382,-9.16217 -10.98931,-12.32656 l -1.840378,-1.15189 1.840378,0.64877 c 4.369244,1.77417 8.261842,4.14416 10.98931,7.53363 m 0,28.79729 0.940049,1.69474 -0.940049,0.42368 -2.449425,1.13865 -2.820148,-5.58733 c -1.760938,0.63552 -3.720477,0.96652 -5.719737,1.03273 -2.118421,0.10592 -4.303043,-0.19861 -6.209622,-0.83413 l -2.396464,5.38873 c -0.781168,0.053 -1.827138,0 -2.542105,-0.48988 l -0.847369,-1.07245 0.847369,-1.44318 2.06546,-3.6278 -1.787417,-1.28429 1.694736,-2.02574 c 2.91283,1.73446 6.063981,2.72747 9.175412,2.72747 3.111431,0.0794 6.196382,-0.91357 9.082731,-2.96579 l 1.906579,0.55609 0.781167,0.31776 -0.781167,0.60904 c -0.556086,0.56933 -1.045971,1.13866 -1.95954,1.65502 l 1.95954,3.78668 z m 39.535033,-14.40527 8.72525,-5.56085 H 72.204786 c 0,1.97278 -0.291283,3.68076 -0.940049,5.15041 -1.827139,4.72673 -6.394984,6.96431 -10.98931,6.91135 -4.501645,-0.10592 -9.08273,-2.44942 -11.148191,-6.76571 -0.701727,-1.57557 -1.125411,-3.23059 -1.125411,-5.29605 H 0.52271139 l 8.67228641,5.56085 36.2647212,-1.88009 c 0.701727,2.62154 1.98602,4.85912 3.667517,6.52738 2.899589,3.07171 7.05699,4.72673 11.148191,4.72673 4.03824,0.0794 8.116201,-1.37698 10.98931,-4.62081 1.562335,-1.70797 2.767187,-3.87936 3.468914,-6.51414 l 36.052879,1.76093 z m -2.43618,0.94005 -6.68627,3.11144 -26.745067,-3.11144 0.648767,-1.90657 32.78257,1.90657 z m -19.357077,6.81867 -7.348273,2.48915 -10.380263,-3.17763 -0.900329,-0.27805 0.900329,-0.92681 1.204852,-1.21809 16.523684,3.11143 z m 3.495395,-0.41044 5.865379,-2.70099 -24.05732,-2.85987 c -0.211842,0.76793 -0.847369,1.39022 -1.284293,2.03898 l 19.476234,3.52188 z m -64.956087,0 -5.852139,-2.52887 24.189721,-2.97903 c 0.436925,0.71497 0.847369,1.33726 1.337254,1.98602 l -19.674836,3.52188 z"
       id="path277"
       style="fill:#00529b" />
    <path
       clip-path="none"
       d="m 253.40923,785.81957 c 10.93635,1.72121 31.89548,4.44868 57.47542,4.99153 25.54021,0.64876 55.62179,-0.84737 83.99539,-5.08422 28.38685,-4.14416 55.05247,-11.08199 73.90642,-18.56266 19.07903,-7.10995 29.75058,-15.86168 29.71086,-15.9014 0.0927,0.0397 -11.02903,10.16842 -31.22024,18.81423 -19.93963,9.02977 -48.1676,17.68881 -77.83873,23.28939 -29.64466,5.73298 -60.71925,8.35452 -86.06086,8.50017 -25.27541,0.29128 -44.96349,-1.98602 -51.8616,-3.05847 -23.77927,-3.5616 -41.08413,-9.81094 -51.59679,-15.87492 -10.64507,-6.06398 -14.20666,-11.58512 -13.09449,-12.64433 1.17837,-1.27105 6.47442,1.29753 17.23865,4.63405 10.71127,3.36299 27.08931,7.58659 49.34597,10.89663"
       id="path279"
       style="fill:#f47920" />
    <path
       style="fill:url(#linearGradient3875)"
       clip-path="none"
       d="m 655.81649,667.45295 c -48.04843,0.3972 -69.76204,12.16739 -110.25037,41.71938 l -8.30099,8.579 4.1e-4,0 c 41.71889,-30.34553 65.68371,-32.91417 100.01503,-32.63613 3.19087,0.1986 6.23609,0.37055 8.16914,-3.73389 l 10.36677,-13.92836 z"
       id="polygon300" />
    <path
       style="fill:url(#linearGradient3872)"
       clip-path="none"
       d="m 664.67183,632.22112 c -68.15701,11.06925 -98.25178,57.19534 -119.11792,76.91034 40.72605,-37.57465 74.69984,-54.5084 104.55602,-57.8184 2.64774,-3.49503 11.78214,-15.17084 14.56359,-19.0911 l -0.002,-8.5e-4 z"
       id="polygon321" />
    <path
       style="fill:url(#linearGradient3869)"
       clip-path="none"
       d="m 650.07034,651.31306 c -45.41366,6.20963 -75.11112,31.52464 -102.47847,55.64816 -0.76597,0.76596 -3.53377,3.81043 -4.33626,4.53551 l 4.1e-4,4.1e-4 c 23.85552,-17.66069 43.88882,-35.95528 93.65344,-42.74678 2.47591,-2.80691 9.73167,-12.33986 13.16086,-17.43731 z"
       id="polygon348" />
    <path
       style="fill:url(#linearGradient3866)"
       clip-path="none"
       d="m 651.0236,665.87708 c -7.9176,0 -15.94105,3.76049 -16.70898,5.90539 -1.31078,3.5616 0.74138,2.05206 6.69944,5.60041 5.04449,2.97903 3.9854,4.05168 3.522,5.57429 4.59432,-6.54062 12.86936,-16.11334 12.86936,-16.11334 -2.0125,-0.67524 -4.1972,-0.96675 -6.38182,-0.96675 z"
       id="polygon365" />
    <path
       style="fill:url(#linearGradient3863)"
       clip-path="none"
       d="m 735.81327,609.7525 c -13.91537,18.35082 -45.61197,16.74871 -55.47587,18.05948 -9.26809,1.24457 -15.17324,3.57487 -18.88048,8.28836 l -13.0547,17.39729 c 2.84661,-2.54211 11.43955,-3.78665 20.72088,-4.02497 l 1.31049,0 1.19169,0 c 1.24458,-0.0397 2.63468,-0.10585 4.0911,-0.15881 13.20041,-0.51636 31.52497,-2.35666 42.14357,-14.7759 l 16.02024,-22.151 1.93308,-2.63445 z"
       id="polygon402" />
    <path
       style="fill:url(#linearGradient3860)"
       clip-path="none"
       d="m 748.60344,590.67319 c -14.69655,14.49794 -30.7438,15.09378 -44.35466,16.9474 -4.07797,0.52961 -13.26633,0.39719 -20.93236,5.2828 -7.63955,4.85913 -16.80186,16.45735 -21.32999,22.54781 4.21035,-4.4884 9.79776,-5.75938 17.9272,-6.69943 8.22213,-0.94005 20.0719,-0.78101 28.50587,-1.94614 8.03675,-1.05921 15.54397,-2.68759 26.00368,-17.05313 l 14.18026,-19.07931 z"
       id="polygon431" />
    <path
       style="fill:url(#linearGradient3857)"
       clip-path="none"
       d="m 718.38945,633.84922 c -6.15667,7.89112 -17.13256,11.45299 -30.31973,13.30661 -10.02279,1.37697 -21.40941,1.78713 -24.67973,1.98573 -5.62705,0.23833 -13.06824,2.02591 -15.12046,4.50181 -6.31555,7.82492 -12.31314,15.10711 -13.95491,18.1391 3.85288,-3.58807 16.47091,-3.19097 31.82946,-3.8927 15.25263,-0.71496 30.75661,-7.32176 43.00374,-21.25038 l 9.24163,-12.79017 z"
       id="polygon470" />
    <polygon
       style="fill:#00529b"
       id="polygon472"
       points="71.061,36.22 74.916,36.22 74.916,35.637 72.604,35.637 72.604,34.532 74.683,34.532 74.683,33.952 72.604,33.952 72.604,32.946 74.795,32.946 74.795,32.37 71.061,32.37 "
       transform="matrix(13.240132,0,0,13.240132,-858.21901,206.51083)"
       clip-path="none" />
    <path
       clip-path="none"
       d="m 163.58818,686.06841 v -43.34819 h 11.95584 c 3.65427,0 7.04375,0.27804 10.11546,2.31702 2.26406,1.58882 3.65427,3.87936 3.65427,6.68627 0,2.3435 -0.83412,4.77969 -3.93232,6.72599 -4.025,2.64802 -11.05551,3.00551 -15.46447,2.44942 l -2.54211,-0.2648 20.36333,25.43429 h 23.56743 l -19.27763,-21.23717 c 3.4954,-0.38396 9.02977,-1.76094 12.39276,-3.93232 3.97204,-2.71423 6.0375,-6.73923 6.0375,-10.51266 0,-4.21037 -2.26406,-8.79145 -7.34827,-11.75724 -6.11694,-3.44244 -14.43174,-3.53512 -22.12426,-3.53512 h -37.93298 v 50.97451 h 20.53545 z"
       id="path482"
       style="fill:#00529b" />
    <polygon
       style="fill:#00529b"
       id="polygon484"
       points="89.621,32.946 91.869,32.946 91.869,32.37 88.079,32.37 88.079,36.22 89.621,36.22 89.621,34.597 91.699,34.597 91.699,34.014 89.621,34.014 "
       transform="matrix(13.240132,0,0,13.240132,-858.21901,206.51083)"
       clip-path="none" />
    <polygon
       style="fill:#00529b"
       id="polygon486"
       points="93.977,35.637 93.977,32.37 92.43,32.37 92.43,36.22 96.25,36.22 96.25,35.637 "
       transform="matrix(13.240132,0,0,13.240132,-858.21901,206.51083)"
       clip-path="none" />
    <polygon
       style="fill:#00529b"
       id="polygon488"
       points="105.826,36.22 105.826,32.946 107.485,32.946 107.485,32.37 102.615,32.37 102.615,32.946 104.274,32.946 104.274,36.22 "
       transform="matrix(13.240132,0,0,13.240132,-858.21901,206.51083)"
       clip-path="none" />
    <path
       clip-path="none"
       d="m 456.96302,681.32844 c -5.07097,0 -11.06875,-1.11217 -15.47771,-6.62006 -3.66752,-4.50165 -4.31629,-9.67854 -4.31629,-14.06102 0,-4.60757 0.64877,-9.67854 4.31629,-14.18018 4.40896,-5.6403 10.40674,-6.76571 15.47771,-6.76571 5.08421,0 11.00255,1.12541 15.49096,6.76571 3.65427,4.50164 4.32952,9.57261 4.32952,14.18018 0,4.38248 -0.67525,9.55937 -4.32952,14.06102 -4.48841,5.50789 -10.40675,6.62006 -15.49096,6.62006 m 0,-47.74391 c -9.57261,0 -22.97163,2.15814 -31.97492,8.55312 -7.07023,5.07097 -10.43322,12.28685 -10.43322,18.50971 0,6.07722 3.36299,13.31957 10.43322,18.36406 9.00329,6.31554 22.40231,8.46045 31.97492,8.46045 9.49318,0 22.99811,-2.14491 32.01464,-8.46045 7.12319,-5.04449 10.40674,-12.28684 10.40674,-18.36406 0,-6.22286 -3.28355,-13.43874 -10.40674,-18.50971 -9.01653,-6.39498 -22.52146,-8.4472 -32.01464,-8.55312"
       id="path498"
       style="fill:#00529b" />
    <path
       clip-path="none"
       d="m 258.45372,681.32844 c -5.05773,0 -10.98931,-1.11217 -15.39827,-6.62006 -3.66752,-4.50165 -4.32952,-9.67854 -4.32952,-14.06102 0,-4.60757 0.662,-9.67854 4.32952,-14.18018 4.40896,-5.6403 10.34054,-6.76571 15.39827,-6.76571 5.13717,0 11.05551,1.12541 15.5704,6.76571 3.66751,4.50164 4.31628,9.57261 4.31628,14.18018 0,4.38248 -0.64877,9.55937 -4.31628,14.06102 -4.51489,5.50789 -10.43323,6.62006 -15.5704,6.62006 m 0,-47.74391 c -9.51965,0 -22.89219,2.15814 -31.90872,8.55312 -7.13643,5.07097 -10.51266,12.28685 -10.51266,18.50971 0,6.07722 3.37623,13.31957 10.51266,18.36406 9.01653,6.31554 22.38907,8.46045 31.90872,8.46045 9.55938,0 23.06431,-2.14491 32.08084,-8.46045 7.05699,-5.04449 10.34055,-12.28684 10.34055,-18.36406 0,-6.22286 -3.28356,-13.43874 -10.34055,-18.50971 -9.01653,-6.39498 -22.52146,-8.4472 -32.08084,-8.55312"
       id="path500"
       style="fill:#00529b" />
    <path
       style="fill:#00529b"
       id="path502"
       d="m 22.554297,664.36784 9.665297,-17.80798 h 0.278046 l 10.446462,17.80798 H 22.554297 z m -11.823431,21.70057 8.063244,-14.78922 h 28.360362 l 8.711996,14.78922 H 78.838102 L 47.723789,635.0939 H 28.73744 L 0.50947594,686.06841 H 10.730866 z"
       clip-path="none" />
    <path
       clip-path="none"
       d="m 215.33061,726.98042 -4.54136,16.80173 c -0.58257,0.64876 -1.45642,1.20485 -2.23758,1.64177 -1.23134,0.66201 -2.39647,1.01949 -3.4954,1.01949 -1.12541,0 -2.10518,-0.4634 -2.55534,-1.12541 -0.34425,-0.56932 -0.67525,-1.46965 -0.22509,-3.01875 l 4.0912,-15.31883 h -4.21036 l -3.98528,14.76275 c -0.331,1.36373 -0.90033,3.68075 0.31777,5.46817 0.68848,1.00625 2.1449,2.11842 5.11069,2.11842 1.23133,0 2.46266,-0.22508 3.9588,-0.90033 0.99301,-0.55608 2.09194,-1.21809 2.99227,-1.89334 l -0.67525,2.33027 h 3.78668 l 5.91834,-21.88594 h -4.25009 z"
       id="path512"
       style="fill:#00529b" />
    <path
       clip-path="none"
       d="m 242.39344,729.49604 c -1.01949,-1.31077 -2.23758,-1.97278 -2.46266,-2.0787 -1.40346,-0.76792 -3.00551,-0.90033 -4.34277,-0.90033 -1.42993,0 -3.21735,0.13241 -5.20337,1.32402 -1.45641,1.01949 -3.23059,2.56858 -3.8926,5.13717 -0.58256,1.8801 -0.34424,3.32327 0.33101,4.2236 0.75469,0.99301 2.10518,1.53586 3.23059,1.8801 l 2.09194,0.67525 c 1.11217,0.21184 2.22434,0.21184 2.88635,1.09893 0.34424,0.43692 0.70173,1.00625 0.4634,2.10518 -0.331,1.01949 -0.99301,1.66825 -1.56233,2.10518 -0.78117,0.68849 -2.11842,1.27105 -3.99852,1.27105 -1.23133,0 -2.23758,-0.25156 -3.23059,-0.82089 -0.87385,-0.64876 -1.5491,-1.21809 -1.89334,-1.73445 l -2.79367,2.55534 c 2.0125,2.63479 4.47516,2.97903 6.91135,2.97903 1.65502,0 5.00477,-0.21184 7.7852,-2.3435 1.54909,-1.29753 2.66126,-2.99227 3.11143,-4.44869 0.22508,-1.12541 0.45016,-2.76718 -0.10592,-3.78667 -0.79441,-1.53586 -2.56859,-2.23759 -3.5616,-2.43619 l -1.56233,-0.47664 c -1.97278,-0.41045 -2.88635,-0.63553 -3.32328,-1.17837 -0.45016,-0.34425 -0.78117,-1.00625 -0.45016,-2.33027 0.21184,-0.56932 0.67524,-1.45641 1.54909,-2.1449 1.12541,-0.67525 2.13166,-0.75469 2.89959,-0.75469 0.99301,0 1.8801,0.23833 2.67451,0.75469 l 1.65501,1.57558 2.79367,-2.25083 z"
       id="path514"
       style="fill:#00529b" />
    <path
       clip-path="none"
       d="m 265.12675,729.49604 c -0.88709,-1.31077 -2.10518,-1.97278 -2.43618,-2.0787 -1.32402,-0.76792 -2.89959,-0.90033 -4.22361,-0.90033 -1.53585,0 -3.23059,0.13241 -5.22985,1.32402 -1.44317,1.01949 -3.23059,2.56858 -3.99852,5.13717 -0.3972,1.8801 -0.1986,3.32327 0.43693,4.2236 0.7944,0.99301 2.25082,1.53586 3.23059,1.8801 l 1.99926,0.67525 c 1.11217,0.21184 2.23758,0.21184 3.00551,1.09893 0.34424,0.43692 0.662,1.00625 0.34424,2.10518 -0.34424,1.01949 -1.00625,1.66825 -1.46965,2.10518 -0.76793,0.68849 -2.09194,1.27105 -3.98528,1.27105 -1.2181,0 -2.22435,-0.25156 -3.32328,-0.82089 -0.87385,-0.64876 -1.41669,-1.21809 -1.85362,-1.73445 l -2.78042,2.55534 c 2.13166,2.63479 4.52812,2.97903 6.95107,2.97903 1.66825,0 4.99153,-0.21184 7.78519,-2.3435 1.56234,-1.29753 2.67451,-2.99227 3.00551,-4.44869 0.33101,-1.12541 0.43693,-2.76718 -0.11916,-3.78667 -0.662,-1.53586 -2.43618,-2.23759 -3.54835,-2.43619 l -1.56234,-0.47664 c -1.89334,-0.41045 -2.76719,-0.63553 -3.24383,-1.17837 -0.42368,-0.34425 -0.76793,-1.00625 -0.42368,-2.33027 0.22508,-0.56932 0.55608,-1.45641 1.54909,-2.1449 1.01949,-0.67525 2.11842,-0.75469 2.78043,-0.75469 1.12541,0 2.0125,0.23833 2.79367,0.75469 l 1.65501,1.57558 2.66127,-2.25083 z"
       id="path516"
       style="fill:#00529b" />
    <path
       clip-path="none"
       d="m 275.97042,719.81751 c -0.35749,1.52261 0.56932,2.76719 2.0125,2.76719 1.54909,0 2.99227,-1.24458 3.42919,-2.76719 0.43693,-1.46966 -0.43692,-2.68775 -1.99926,-2.68775 -1.44317,0 -3.00551,1.21809 -3.44243,2.68775 m -2.68775,7.16291 -0.78117,2.87311 h 2.55535 l -5.09745,19.01283 h 4.21036 l 5.89186,-21.88594 h -6.77895 z"
       id="path518"
       style="fill:#00529b" />
    <path
       clip-path="none"
       d="m 314.55216,748.86636 4.66053,-17.25189 c 1.48289,-1.2181 3.694,-2.19787 5.68002,-2.19787 1.44317,0 2.23758,0.55609 2.56858,1.20486 0.66201,0.99301 0.31776,2.66126 0.10592,3.32327 l -3.99852,14.92163 h 4.21036 l 4.025,-14.57739 c 0.45017,-1.77418 0.64877,-3.8926 -0.331,-5.68001 -0.91357,-1.42994 -2.55534,-2.09195 -4.91209,-2.09195 -1.42993,0 -3.87936,0.30453 -6.55386,2.09195 l 0.43692,-1.62854 h -6.79219 l -0.76792,2.85987 h 2.55534 l -5.11069,19.02607 h 4.2236 z"
       id="path520"
       style="fill:#00529b" />
    <path
       clip-path="none"
       d="m 183.5543,731.38938 h -0.79441 -6.22286 l 2.78042,-10.36702 h 4.23685 2.10518 c 0.68848,0 2.76718,0 3.8926,1.12541 0.662,0.66201 1.21809,1.70798 0.76792,3.46892 -0.43692,1.66825 -1.35049,3.00551 -2.64802,4.11768 -1.4829,1.12541 -3.03199,1.56233 -4.11768,1.65501 m -7.93084,-14.03454 -8.55313,31.51152 h 4.77969 l 3.694,-13.8889 h 3.19087 l 4.46192,13.8889 h 0.34425 5.41521 l -5.08421,-14.11398 c 2.31702,-0.25157 5.44169,-1.3505 7.32179,-2.79367 2.10518,-1.5491 3.66752,-3.77344 4.21036,-6.09046 0.67525,-2.22434 0.35749,-4.52813 -0.96653,-6.05074 -1.78741,-2.25082 -5.34901,-2.46267 -7.91759,-2.46267 h -2.97903 -7.9176 z"
       id="path522"
       style="fill:#00529b" />
    <path
       clip-path="none"
       d="m 293.95052,746.07269 -2.0125,0.35748 c -0.80765,0 -1.91982,-0.10592 -2.56859,-1.00625 -0.56932,-0.79441 -0.68849,-1.57557 -0.34424,-2.68774 0.22508,-0.87385 0.662,-1.76094 1.7477,-2.66127 0.64876,-0.45017 1.50937,-1.00625 3.17763,-1.21809 0.55608,-0.11916 1.21809,-0.23833 2.0125,-0.23833 h 3.12467 l -1.24457,4.68701 c -0.67525,0.87385 -1.32402,1.42994 -2.13167,1.99926 l -1.76093,0.76793 z m 0,-10.00954 c -4.36925,0.45016 -8.06324,2.25082 -9.28134,6.80543 l -0.22508,1.42993 v 0.78117 c 0.11916,2.46266 1.77418,4.25008 5.46818,4.25008 1.28429,0 2.59506,-0.22508 4.03824,-0.82089 l 0.45016,-0.1986 c 1.44318,-0.66201 2.54211,-1.77418 2.89959,-2.09194 h 0.21184 l -0.75469,2.66127 h 3.77344 l 3.87936,-14.12722 c 0.55609,-2.23759 1.11217,-4.44869 -0.11916,-6.13018 -0.99301,-1.53586 -3.54836,-2.09195 -5.54762,-2.09195 -1.89333,0 -3.57483,0.22509 -4.79292,0.55609 -3.81316,0.99301 -5.26958,3.32327 -5.40198,5.42845 l 3.86612,0.22509 c 0.30452,-1.11217 0.76793,-1.8801 1.53586,-2.43619 0.90033,-0.64876 2.23758,-0.87385 3.8926,-0.87385 0.90032,0 1.99926,0.0662 2.44942,0.87385 0.67525,0.78117 0.45016,1.89334 0.23832,2.89959 l -0.78117,2.76719 h -3.12467 c -0.91357,0 -1.86686,0 -2.6745,0.0927"
       id="path524"
       style="fill:#00529b" />
    <path
       clip-path="none"
       d="m 399.30225,719.81751 c -0.33101,1.52261 0.54284,2.76719 1.99926,2.76719 1.45641,0 2.99227,-1.24458 3.44243,-2.76719 0.46341,-1.46966 -0.45016,-2.68775 -1.98602,-2.68775 -1.46965,0 -3.04523,1.21809 -3.45567,2.68775 m -3.90584,7.16291 -0.76793,2.87311 h 2.55535 l -5.12394,19.01283 h 4.22361 l 5.9051,-21.88594 h -6.79219 z"
       id="path526"
       style="fill:#00529b" />
    <path
       clip-path="none"
       d="m 411.50965,726.98042 -5.87862,21.88594 h 4.23684 l 3.33652,-12.56489 c 0.54284,-1.44317 1.09893,-2.89959 1.88009,-3.98528 1.33726,-2.1449 2.85987,-2.46266 3.73372,-2.46266 l 1.65502,0.55608 c 0.31776,0.33101 0.45016,0.97977 0.45016,1.78742 l 3.78668,-1.11217 c 0.75469,-2.22434 0,-3.46891 -1.32401,-4.10444 -0.70173,-0.331 -1.4829,-0.46341 -2.25083,-0.46341 -2.42294,0 -4.8194,1.32402 -6.5009,3.65428 l 0.88709,-3.19087 h -4.01176 z"
       id="path528"
       style="fill:#00529b" />
    <path
       clip-path="none"
       d="m 434.852,716.89144 -7.01727,25.9639 c -0.51636,2.0125 -1.54909,6.01102 3.46892,6.01102 h 2.43618 l 0.76793,-2.89959 h -1.20485 c -2.10518,0 -1.56234,-1.78742 -1.46966,-2.19786 l 7.24235,-26.87747 h -4.2236 z"
       id="path530"
       style="fill:#00529b" />
    <path
       clip-path="none"
       d="m 450.15759,719.81751 c -0.331,1.52261 0.56933,2.76719 2.0125,2.76719 1.56234,0 3.01875,-1.24458 3.45568,-2.76719 0.331,-1.46966 -0.55609,-2.68775 -1.99926,-2.68775 -1.5491,0 -3.00551,1.21809 -3.46892,2.68775 m -3.87935,7.16291 -0.76793,2.87311 h 2.56858 l -5.22985,19.01283 h 4.31628 l 5.91834,-21.88594 h -6.80542 z"
       id="path532"
       style="fill:#00529b" />
    <path
       clip-path="none"
       d="m 461.75595,748.86636 4.55461,-17.25189 c 1.54909,-1.2181 3.77343,-2.19787 5.77269,-2.19787 1.45642,0 2.23759,0.55609 2.56859,1.20486 0.76793,0.99301 0.22508,2.66126 0.10592,3.32327 l -3.98528,14.92163 h 4.21036 l 3.99852,-14.57739 c 0.45017,-1.77418 0.66201,-3.8926 -0.31776,-5.68001 -0.90033,-1.42994 -2.58183,-2.09195 -4.89885,-2.09195 -1.56234,0 -3.78668,0.30453 -6.55387,2.09195 l 0.43693,-1.62854 h -6.76571 l -0.75469,2.85987 h 2.51563 l -5.03125,19.02607 h 4.14416 z"
       id="path534"
       style="fill:#00529b" />
    <path
       clip-path="none"
       d="m 526.97684,729.49604 c -0.88709,-1.31077 -1.98602,-1.97278 -2.35674,-2.0787 -1.42994,-0.76792 -2.84663,-0.90033 -4.19713,-0.90033 -1.58881,0 -3.23059,0.13241 -5.21661,1.32402 -1.57557,1.01949 -3.34975,2.56858 -3.99852,5.13717 -0.58256,1.8801 -0.23832,3.32327 0.42369,4.2236 0.64876,0.99301 2.11842,1.53586 3.11143,1.8801 l 2.11842,0.67525 c 1.11217,0.21184 2.23758,0.21184 2.87311,1.09893 0.4634,0.43692 0.68848,1.00625 0.4634,2.10518 -0.31776,1.01949 -0.99301,1.66825 -1.56233,2.10518 -0.66201,0.68849 -2.0125,1.27105 -4.01176,1.27105 -1.24458,0 -2.11842,-0.25156 -3.21736,-0.82089 -0.88708,-0.64876 -1.54909,-1.21809 -1.89333,-1.73445 l -2.78043,2.55534 c 2.0125,2.63479 4.47516,2.97903 6.89811,2.97903 1.77417,0 5.00477,-0.21184 7.79843,-2.3435 1.5491,-1.29753 2.64803,-2.99227 3.0982,-4.44869 0.331,-1.12541 0.4634,-2.76718 -0.0794,-3.78667 -0.68848,-1.53586 -2.59506,-2.23759 -3.57483,-2.43619 l -1.57558,-0.47664 c -1.85362,-0.41045 -2.76718,-0.63553 -3.32327,-1.17837 -0.34424,-0.34425 -0.76793,-1.00625 -0.43692,-2.33027 0.21184,-0.56932 0.51636,-1.45641 1.54909,-2.1449 1.09893,-0.67525 2.2111,-0.75469 2.88635,-0.75469 1.11217,0 1.8801,0.23833 2.75395,0.75469 l 1.56233,1.57558 2.68775,-2.25083 z"
       id="path536"
       style="fill:#00529b" />
    <path
       style="fill:#00529b"
       id="path538"
       d="m 369.71057,737.50632 8.5134,-13.43873 h 0.0927 l 1.01949,13.43873 h -9.62557 z m -11.77048,11.36004 h 4.77969 l 4.77968,-7.66603 h 12.03528 l 0.56933,7.66603 h 5.45493 l -2.99227,-31.51152 h -3.90584 l -20.7208,31.51152 z"
       clip-path="none" />
    <path
       clip-path="none"
       d="m 490.46056,735.95723 0.22508,-0.99301 c 0.47664,-1.12541 1.00625,-2.89959 2.44942,-4.11768 0.92681,-0.92681 2.36999,-1.42994 3.68076,-1.42994 1.11217,0 2.2111,0.30453 2.76719,0.97977 1.00625,1.33726 0.55608,3.24384 0.11916,4.68701 l -0.22508,0.87385 h -9.01653 z m -0.64877,2.91283 h 13.18717 l 0.331,-1.44318 c 0.87385,-2.92607 1.7477,-5.9051 0.21185,-8.35452 -1.27106,-2.09194 -3.9588,-2.54211 -5.85214,-2.54211 -2.82015,0 -5.5079,1.00625 -7.6528,2.89959 -2.91283,2.54211 -4.10444,5.98454 -4.77969,8.88413 -0.67524,2.34351 -1.35049,5.87862 0.43693,8.46045 1.65501,2.19786 4.67376,2.55534 6.77895,2.55534 1.72121,0 3.27031,-0.22508 4.91208,-0.82089 0.87385,-0.29128 1.98602,-0.74144 2.97903,-1.29753 l -0.662,-2.56858 c -1.00625,0.43692 -1.77418,0.7944 -2.88635,1.03273 -1.05921,0.18536 -2.02574,0.41044 -3.12467,0.41044 -1.65502,0 -3.11143,-0.56933 -3.87936,-1.53586 -1.23133,-1.42993 -0.66201,-3.68075 -0.31776,-4.79292 l 0.31776,-0.88709 z"
       id="path548"
       style="fill:#00529b" />
  </g>
</svg>
